<svg preserveAspectRatio="none" width="100%" height="100%" overflow="visible" style="display: block;" viewBox="0 0 25 30" fill="none" xmlns="http://www.w3.org/2000/svg">
<path id="apple" d="M24.975 22.0114C23.988 24.8612 21.052 29.9109 18.0285 29.9609C16.017 29.9984 15.3798 28.7735 13.081 28.7735C10.7821 28.7735 10.07 29.9234 8.17091 29.9984C4.96002 30.1234 0 22.7113 0 16.2617C0 10.3245 4.13543 7.38712 7.74613 7.33712C9.68266 7.29962 11.5067 8.64955 12.6937 8.64955C13.8806 8.64955 16.1044 7.03713 18.4408 7.27462C19.4153 7.31212 22.1639 7.6746 23.9255 10.2495C19.2529 13.2993 19.9775 19.6865 25 22.0364L24.975 22.0114ZM18.4533 0C14.9175 0.137493 12.044 3.8498 12.4438 6.91214C15.7046 7.16213 18.8406 3.51232 18.4533 0Z" fill="var(--fill-0, white)"/>
</svg>
