<svg preserveAspectRatio="none" width="100%" height="100%" overflow="visible" style="display: block;" viewBox="0 0 27 30" fill="none" xmlns="http://www.w3.org/2000/svg">
<path id="google" fill-rule="evenodd" clip-rule="evenodd" d="M0.699863 29.5827L13.6289 16.4564L18.1842 21.0819L2.81173 29.7578C2.22237 30.0828 1.51023 30.0828 0.933152 29.7453L0.699863 29.5827ZM12.3274 15.1313L0 27.645V2.61748L12.3274 15.1313ZM20.0259 9.96823L26.0423 13.3686C26.6317 13.7061 27 14.3312 27 15.0063C27 15.6813 26.6317 16.3189 26.0423 16.6439L19.854 20.1318L14.9304 15.1313L20.0259 9.95573V9.96823ZM0.564803 0.542265C0.675308 0.429754 0.79809 0.342245 0.933152 0.254736C1.51023 -0.0827989 2.23465 -0.0827989 2.81173 0.242234L18.3438 9.00563L13.6166 13.7936L0.564803 0.542265Z" fill="var(--fill-0, white)"/>
</svg>
